<?xml version="1.0" encoding="UTF-8"?>
<svg xmlns="http://www.w3.org/2000/svg" width="450" height="450" viewBox="0 0 450 450">
  <rect width="450" height="450" fill="#000000"/>
  <circle cx="225" cy="225" r="224" fill="#252729" stroke="#73777a" stroke-width="2"/>
  <circle cx="225" cy="225" r="218" fill="#0b0c0d" stroke="#080909" stroke-width="6"/>
  <circle cx="225" cy="225" r="211" fill="#1a1c1d" stroke="#5f6264" stroke-width="2"/>
  <circle cx="225" cy="225" r="203" fill="#303234" stroke="#070809" stroke-width="6"/>
  <circle cx="225" cy="225" r="197" fill="none" stroke="#676a6b" stroke-width="1"/>
  <path d="M36.2 116.5 A217 217 0 0 1 413.8 116.5" fill="none" stroke="#8a8d8f" stroke-width="1.5" stroke-linecap="round"/>
  <path d="M412.9 333.5 A217 217 0 0 1 37.1 333.5" fill="none" stroke="#030404" stroke-width="2.5" stroke-linecap="round"/>

  <g>
    <line x1="225" y1="30" x2="225" y2="54" stroke="#f4f4ef" stroke-width="8" transform="rotate(0 225 225)"/>
    <line x1="225" y1="35" x2="225" y2="50" stroke="#e2e2de" stroke-width="2" transform="rotate(6 225 225)"/>
    <line x1="225" y1="35" x2="225" y2="50" stroke="#e2e2de" stroke-width="2" transform="rotate(12 225 225)"/>
    <line x1="225" y1="35" x2="225" y2="50" stroke="#e2e2de" stroke-width="2" transform="rotate(18 225 225)"/>
    <line x1="225" y1="35" x2="225" y2="50" stroke="#e2e2de" stroke-width="2" transform="rotate(24 225 225)"/>
    <line x1="225" y1="30" x2="225" y2="54" stroke="#f4f4ef" stroke-width="8" transform="rotate(30 225 225)"/>
    <line x1="225" y1="35" x2="225" y2="50" stroke="#e2e2de" stroke-width="2" transform="rotate(36 225 225)"/>
    <line x1="225" y1="35" x2="225" y2="50" stroke="#e2e2de" stroke-width="2" transform="rotate(42 225 225)"/>
    <line x1="225" y1="35" x2="225" y2="50" stroke="#e2e2de" stroke-width="2" transform="rotate(48 225 225)"/>
    <line x1="225" y1="35" x2="225" y2="50" stroke="#e2e2de" stroke-width="2" transform="rotate(54 225 225)"/>
    <line x1="225" y1="30" x2="225" y2="54" stroke="#f4f4ef" stroke-width="8" transform="rotate(60 225 225)"/>
    <line x1="225" y1="35" x2="225" y2="50" stroke="#e2e2de" stroke-width="2" transform="rotate(66 225 225)"/>
    <line x1="225" y1="35" x2="225" y2="50" stroke="#e2e2de" stroke-width="2" transform="rotate(72 225 225)"/>
    <line x1="225" y1="35" x2="225" y2="50" stroke="#e2e2de" stroke-width="2" transform="rotate(78 225 225)"/>
    <line x1="225" y1="35" x2="225" y2="50" stroke="#e2e2de" stroke-width="2" transform="rotate(84 225 225)"/>
    <line x1="225" y1="30" x2="225" y2="54" stroke="#f4f4ef" stroke-width="8" transform="rotate(90 225 225)"/>
    <line x1="225" y1="35" x2="225" y2="50" stroke="#e2e2de" stroke-width="2" transform="rotate(96 225 225)"/>
    <line x1="225" y1="35" x2="225" y2="50" stroke="#e2e2de" stroke-width="2" transform="rotate(102 225 225)"/>
    <line x1="225" y1="35" x2="225" y2="50" stroke="#e2e2de" stroke-width="2" transform="rotate(108 225 225)"/>
    <line x1="225" y1="35" x2="225" y2="50" stroke="#e2e2de" stroke-width="2" transform="rotate(114 225 225)"/>
    <line x1="225" y1="30" x2="225" y2="54" stroke="#f4f4ef" stroke-width="8" transform="rotate(120 225 225)"/>
    <line x1="225" y1="35" x2="225" y2="50" stroke="#e2e2de" stroke-width="2" transform="rotate(126 225 225)"/>
    <line x1="225" y1="35" x2="225" y2="50" stroke="#e2e2de" stroke-width="2" transform="rotate(132 225 225)"/>
    <line x1="225" y1="35" x2="225" y2="50" stroke="#e2e2de" stroke-width="2" transform="rotate(138 225 225)"/>
    <line x1="225" y1="35" x2="225" y2="50" stroke="#e2e2de" stroke-width="2" transform="rotate(144 225 225)"/>
    <line x1="225" y1="30" x2="225" y2="54" stroke="#f4f4ef" stroke-width="8" transform="rotate(150 225 225)"/>
    <line x1="225" y1="35" x2="225" y2="50" stroke="#e2e2de" stroke-width="2" transform="rotate(156 225 225)"/>
    <line x1="225" y1="35" x2="225" y2="50" stroke="#e2e2de" stroke-width="2" transform="rotate(162 225 225)"/>
    <line x1="225" y1="35" x2="225" y2="50" stroke="#e2e2de" stroke-width="2" transform="rotate(168 225 225)"/>
    <line x1="225" y1="35" x2="225" y2="50" stroke="#e2e2de" stroke-width="2" transform="rotate(174 225 225)"/>
    <line x1="225" y1="30" x2="225" y2="54" stroke="#f4f4ef" stroke-width="8" transform="rotate(180 225 225)"/>
    <line x1="225" y1="35" x2="225" y2="50" stroke="#e2e2de" stroke-width="2" transform="rotate(186 225 225)"/>
    <line x1="225" y1="35" x2="225" y2="50" stroke="#e2e2de" stroke-width="2" transform="rotate(192 225 225)"/>
    <line x1="225" y1="35" x2="225" y2="50" stroke="#e2e2de" stroke-width="2" transform="rotate(198 225 225)"/>
    <line x1="225" y1="35" x2="225" y2="50" stroke="#e2e2de" stroke-width="2" transform="rotate(204 225 225)"/>
    <line x1="225" y1="30" x2="225" y2="54" stroke="#f4f4ef" stroke-width="8" transform="rotate(210 225 225)"/>
    <line x1="225" y1="35" x2="225" y2="50" stroke="#e2e2de" stroke-width="2" transform="rotate(216 225 225)"/>
    <line x1="225" y1="35" x2="225" y2="50" stroke="#e2e2de" stroke-width="2" transform="rotate(222 225 225)"/>
    <line x1="225" y1="35" x2="225" y2="50" stroke="#e2e2de" stroke-width="2" transform="rotate(228 225 225)"/>
    <line x1="225" y1="35" x2="225" y2="50" stroke="#e2e2de" stroke-width="2" transform="rotate(234 225 225)"/>
    <line x1="225" y1="30" x2="225" y2="54" stroke="#f4f4ef" stroke-width="8" transform="rotate(240 225 225)"/>
    <line x1="225" y1="35" x2="225" y2="50" stroke="#e2e2de" stroke-width="2" transform="rotate(246 225 225)"/>
    <line x1="225" y1="35" x2="225" y2="50" stroke="#e2e2de" stroke-width="2" transform="rotate(252 225 225)"/>
    <line x1="225" y1="35" x2="225" y2="50" stroke="#e2e2de" stroke-width="2" transform="rotate(258 225 225)"/>
    <line x1="225" y1="35" x2="225" y2="50" stroke="#e2e2de" stroke-width="2" transform="rotate(264 225 225)"/>
    <line x1="225" y1="30" x2="225" y2="54" stroke="#f4f4ef" stroke-width="8" transform="rotate(270 225 225)"/>
    <line x1="225" y1="35" x2="225" y2="50" stroke="#e2e2de" stroke-width="2" transform="rotate(276 225 225)"/>
    <line x1="225" y1="35" x2="225" y2="50" stroke="#e2e2de" stroke-width="2" transform="rotate(282 225 225)"/>
    <line x1="225" y1="35" x2="225" y2="50" stroke="#e2e2de" stroke-width="2" transform="rotate(288 225 225)"/>
    <line x1="225" y1="35" x2="225" y2="50" stroke="#e2e2de" stroke-width="2" transform="rotate(294 225 225)"/>
    <line x1="225" y1="30" x2="225" y2="54" stroke="#f4f4ef" stroke-width="8" transform="rotate(300 225 225)"/>
    <line x1="225" y1="35" x2="225" y2="50" stroke="#e2e2de" stroke-width="2" transform="rotate(306 225 225)"/>
    <line x1="225" y1="35" x2="225" y2="50" stroke="#e2e2de" stroke-width="2" transform="rotate(312 225 225)"/>
    <line x1="225" y1="35" x2="225" y2="50" stroke="#e2e2de" stroke-width="2" transform="rotate(318 225 225)"/>
    <line x1="225" y1="35" x2="225" y2="50" stroke="#e2e2de" stroke-width="2" transform="rotate(324 225 225)"/>
    <line x1="225" y1="30" x2="225" y2="54" stroke="#f4f4ef" stroke-width="8" transform="rotate(330 225 225)"/>
    <line x1="225" y1="35" x2="225" y2="50" stroke="#e2e2de" stroke-width="2" transform="rotate(336 225 225)"/>
    <line x1="225" y1="35" x2="225" y2="50" stroke="#e2e2de" stroke-width="2" transform="rotate(342 225 225)"/>
    <line x1="225" y1="35" x2="225" y2="50" stroke="#e2e2de" stroke-width="2" transform="rotate(348 225 225)"/>
    <line x1="225" y1="35" x2="225" y2="50" stroke="#e2e2de" stroke-width="2" transform="rotate(354 225 225)"/>
  </g>

  <g fill="#141617" stroke="#050606" stroke-width="1.5">
    <circle cx="98.5" cy="98.5" r="7.5"/><circle cx="351.5" cy="98.5" r="7.5"/>
    <circle cx="351.5" cy="351.5" r="7.5"/><circle cx="98.5" cy="351.5" r="7.5"/>
  </g>
  <g stroke="#56595a" stroke-width="1.2" stroke-linecap="round">
    <line x1="95" y1="103" x2="102" y2="94"/><line x1="348" y1="103" x2="355" y2="94"/>
    <line x1="348" y1="356" x2="355" y2="347"/><line x1="95" y1="356" x2="102" y2="347"/>
  </g>

  <path d="M304.20 145.80 A112 112 0 0 1 304.20 304.20 L268.84 268.84 A62 62 0 0 0 268.84 181.16 Z"
        fill="#303234" stroke="#f4f4ef" stroke-width="2.5" stroke-linejoin="round"/>
  <g stroke="#f4f4ef" stroke-width="1.3">
    <line x1="285" y1="202" x2="333" y2="202"/>
    <line x1="285" y1="248" x2="333" y2="248"/>
  </g>
  <g font-family="Roboto Condensed, Arial Narrow, sans-serif" font-weight="300" fill="#f4f4ef"
     text-anchor="middle" dominant-baseline="central">
    <text x="299" y="180" font-size="20" fill="#bfc0bc">15</text>
    <text x="312" y="225" font-size="28">16</text>
    <text x="299" y="270" font-size="20" fill="#bfc0bc">17</text>
  </g>

  <g stroke="#f4f4ef" stroke-width="10" stroke-linecap="butt">
    <line x1="172" y1="312" x2="219" y2="340"/><line x1="181" y1="297" x2="238" y2="334"/>
    <line x1="192" y1="284" x2="255" y2="327"/><line x1="205" y1="273" x2="270" y2="317"/>
    <line x1="220" y1="265" x2="281" y2="306"/>
  </g>

  <g font-family="Roboto Condensed, Arial Narrow, sans-serif" font-weight="300" fill="#f4f4ef"
     text-anchor="middle" dominant-baseline="central">
    <text x="225" y="84" font-size="52">12</text>
    <text x="300" y="101" font-size="52">1</text>
    <text x="354" y="154" font-size="52">2</text>
    <text x="376" y="225" font-size="52">3</text>
    <text x="354" y="301" font-size="52">4</text>
    <text x="300" y="355" font-size="52">5</text>
    <text x="225" y="378" font-size="52">6</text>
    <text x="151" y="355" font-size="52">7</text>
    <text x="97" y="301" font-size="52">8</text>
    <text x="74" y="225" font-size="52">9</text>
    <text x="97" y="154" font-size="50">10</text>
    <text x="151" y="101" font-size="50">11</text>
    <text x="146" y="225" font-size="31" letter-spacing="2.4">ALT</text>
  </g>

  <!-- Hand shadows at the declared 10:08:32 preview time. -->
  <g transform="translate(3 3)" fill="#000000" opacity="0.58">
    <g transform="rotate(304.267 225 225)">
      <path d="M225 89 L243 139 L238 187 L225 209 L212 187 L207 139 Z"/>
      <path d="M217 202 Q225 194 233 202 L233 250 Q233 259 225 262 Q217 259 217 250 Z"/>
    </g>
    <g transform="rotate(48.053 225 225)">
      <path d="M225 39 L237 94 L234 187 L225 215 L216 187 L213 94 Z"/>
      <path d="M217 208 Q225 199 233 208 L233 260 Q233 270 225 273 Q217 270 217 260 Z"/>
    </g>
  </g>

  <g transform="rotate(304.267 225 225)">
    <path d="M225 89 L243 139 L238 187 L225 209 L212 187 L207 139 Z"
          fill="#f6f6f1" stroke="#101112" stroke-width="2.5" stroke-linejoin="round"/>
    <path d="M217 202 Q225 194 233 202 L233 250 Q233 259 225 262 Q217 259 217 250 Z"
          fill="#151617" stroke="#080909" stroke-width="2"/>
    <path d="M223 209 L227 209 L227 248 Q227 252 225 254 Q223 252 223 248 Z" fill="#454748"/>
  </g>
  <g transform="rotate(48.053 225 225)">
    <path d="M225 39 L237 94 L234 187 L225 215 L216 187 L213 94 Z"
          fill="#f6f6f1" stroke="#101112" stroke-width="2.5" stroke-linejoin="round"/>
    <path d="M217 208 Q225 199 233 208 L233 260 Q233 270 225 273 Q217 270 217 260 Z"
          fill="#141516" stroke="#080909" stroke-width="2"/>
    <path d="M223 216 L227 216 L227 258 Q227 263 225 265 Q223 263 223 258 Z" fill="#444647"/>
  </g>
  <g transform="rotate(192 225 225)">
    <path d="M223.7 46 L226.3 46 L226.3 221 L223.7 221 Z" fill="#f4f4ef" stroke="#101112" stroke-width="0.8"/>
    <path d="M221 214 Q225 208 229 214 L228 268 Q228 275 225 278 Q222 275 222 268 Z"
          fill="#18191a" stroke="#050606" stroke-width="1.5"/>
    <path d="M225 40 L228 50 L225 57 L222 50 Z" fill="#f4f4ef" stroke="#101112" stroke-width="0.8"/>
  </g>

  <circle cx="225" cy="226" r="18" fill="#121314" stroke="#050606" stroke-width="2"/>
  <circle cx="225" cy="226" r="12" fill="#2b2d2e" stroke="#111213" stroke-width="1.5"/>
  <circle cx="225" cy="226" r="4" fill="#0d0e0f"/>
  <circle cx="218" cy="218" r="2" fill="#5a5d5e"/>
</svg>
